<?xml version="1.0" encoding="utf-8"?>
<!-- Generator: Adobe Illustrator 22.1.0, SVG Export Plug-In . SVG Version: 6.00 Build 0)  -->
<svg version="1.1" id="Layer_1" xmlns="http://www.w3.org/2000/svg" xmlns:xlink="http://www.w3.org/1999/xlink" x="0px" y="0px"
	 viewBox="0 0 100 100.4" style="enable-background:new 0 0 100 100.4;" xml:space="preserve">
<title>Face man confused</title>
<desc>Created with Sketch.</desc>
<g>
	<g>
		<path d="M58.6,27l0.3,0.2c0.2,0.1,0.3,0.2,0.5,0.3c0.2,0.1,0.4,0.2,0.6,0.3c0.1,0,0.2,0.1,0.3,0.2c0.2,0,0.4,0,0.6,0
			c0.9,0,1.7,0.8,1.7,1.7c0,0.1,0.1,0.1,0.1,0.2c0.2,0.2,0.4,0.3,0.6,0.5c0.2,0.2,0.5,0.4,0.7,0.6c0.2,0.2,0.5,0.4,0.8,0.6
			c0.3,0.2,0.6,0.5,0.8,0.7c0.3,0.3,0.6,0.5,0.8,0.8c0.3,0.3,0.5,0.6,0.8,0.8c0.2,0.3,0.4,0.6,0.6,0.8c0.2,0.3,0.4,0.6,0.6,0.9
			c0.2,0.3,0.3,0.5,0.5,0.8c0.2,0.3,0.3,0.6,0.5,0.9c0.1,0.3,0.3,0.6,0.4,0.9c0.1,0.3,0.2,0.6,0.3,0.9c0.1,0.3,0.2,0.6,0.3,0.9
			c0.1,0.3,0.2,0.6,0.3,0.9c0.1,0.3,0.1,0.6,0.2,0.9c0.1,0.3,0.1,0.6,0.2,0.9c0.1,0.3,0.2,0.6,0.2,0.9c0.1,0.3,0.2,0.6,0.3,1
			c0.1,0.4,0.2,0.8,0.3,1.1c0.1,0.4,0.2,0.7,0.3,1.1c0.1,0.4,0.2,0.8,0.3,1.2c0.1,0.4,0.2,0.8,0.2,1.2c0.1,0.4,0.1,0.8,0.1,1.3v1
			c0,0.4,0,0.7,0,1.1c0,0.4,0,0.7-0.1,1.1c0,0.4-0.1,0.7-0.1,1.1c0,0.4-0.1,0.7-0.1,1.1c0,0.3-0.1,0.7-0.1,1c0,0.4-0.1,0.7-0.1,1
			c0,0.3-0.1,0.7-0.1,1c-0.1,0.3-0.1,0.7-0.2,1c-0.1,0.3-0.1,0.7-0.2,1c-0.1,0.4-0.2,0.7-0.3,1.1c-0.1,0.4-0.2,0.7-0.3,1.1
			c-0.1,0.3-0.3,0.7-0.4,1.1c-0.1,0.4-0.3,0.8-0.5,1.2c-0.2,0.4-0.4,0.8-0.6,1.1c-0.2,0.4-0.4,0.7-0.6,1c-0.2,0.3-0.4,0.6-0.7,0.9
			c-0.2,0.3-0.5,0.6-0.7,0.8c-0.2,0.3-0.5,0.5-0.7,0.8c-0.3,0.3-0.5,0.5-0.8,0.8c-0.3,0.3-0.6,0.5-0.9,0.8c-0.3,0.2-0.6,0.5-0.9,0.7
			c-0.3,0.2-0.7,0.5-1,0.7c-0.3,0.2-0.7,0.4-1,0.6c-0.3,0.2-0.7,0.4-1.1,0.6c-0.4,0.2-0.8,0.4-1.2,0.6c-0.4,0.2-0.8,0.3-1.3,0.5
			c-0.4,0.1-0.8,0.3-1.2,0.4c-0.4,0.1-0.8,0.2-1.2,0.3c-0.4,0.1-0.8,0.2-1.2,0.3c-0.4,0.1-0.7,0.1-1,0.2c-0.2,0-0.6,0.1-0.9,0.1
			c-0.4,0.1-0.7,0.1-0.9,0.1c-0.2,0-0.6,0.1-1,0.1c-0.4,0-0.9,0.1-1.3,0.1c-0.5,0-0.8,0.1-1.1,0.1c-0.2,0-0.4,0-0.7,0
			c-0.3,0-0.5,0-0.8,0c-0.3,0-0.5,0-0.8,0h-2.2c-0.3,0-0.5,0-0.8,0c-0.2,0-0.5,0-0.7,0c-0.3,0-0.5,0-0.8,0c-0.2,0-0.5,0-0.7,0
			c-0.3,0-0.5,0-0.8-0.1c-0.3,0-0.5-0.1-0.8-0.1c-0.2,0-0.5-0.1-0.8-0.1c-0.3-0.1-0.6-0.1-1.1-0.3c-0.5-0.1-0.9-0.3-1.4-0.4
			c-0.5-0.1-0.9-0.3-1.4-0.5c-0.4-0.2-0.9-0.4-1.3-0.6c-0.5-0.2-0.9-0.4-1.3-0.6c-0.4-0.2-0.7-0.4-1-0.5c-0.2-0.1-0.4-0.3-0.7-0.4
			c-0.2-0.1-0.5-0.3-0.9-0.6c-0.4-0.3-0.7-0.5-1.1-0.8c-0.4-0.3-0.7-0.5-0.9-0.7c-0.2-0.2-0.4-0.3-0.5-0.5c-0.2-0.2-0.5-0.4-0.8-0.8
			c-0.3-0.3-0.7-0.7-1-1.1c-0.3-0.4-0.7-0.8-1-1.3c-0.3-0.4-0.6-0.9-0.8-1.3c-0.3-0.4-0.5-0.9-0.7-1.4c-0.2-0.5-0.4-0.9-0.5-1.2
			c-0.1-0.3-0.2-0.6-0.3-0.9c-0.1-0.3-0.2-0.6-0.4-1.1c-0.2-0.5-0.3-0.9-0.4-1.3c-0.1-0.3-0.2-0.6-0.2-0.8c-0.1-0.3-0.1-0.5-0.2-0.8
			c-0.1-0.3-0.1-0.5-0.2-0.8c-0.1-0.3-0.1-0.6-0.2-0.9c-0.1-0.3-0.1-0.6-0.1-0.8c0-0.2-0.1-0.5-0.1-0.8c0-0.3-0.1-0.6-0.1-0.9
			c0-0.3,0-0.5,0-0.8v-1.5c0-0.3,0-0.5,0-0.8c0-0.2,0-0.5,0-0.8c0-0.3,0-0.5,0-0.8c0-0.3,0-0.5,0.1-0.8c0-0.3,0.1-0.5,0.1-0.8
			c0-0.3,0.1-0.7,0.2-1.1c0.1-0.5,0.2-1,0.4-1.5c0.1-0.5,0.3-0.9,0.5-1.4c0.2-0.5,0.4-0.9,0.6-1.4c0.2-0.4,0.4-0.8,0.5-1
			c0.1-0.2,0.2-0.5,0.4-0.7c0.1-0.2,0.2-0.4,0.3-0.6c0.1-0.2,0.2-0.4,0.4-0.7c0.1-0.2,0.3-0.5,0.4-0.7c0.1-0.2,0.3-0.5,0.5-0.7
			c0.2-0.2,0.4-0.5,0.7-0.9c0.3-0.4,0.6-0.7,0.8-1c0.2-0.2,0.4-0.4,0.5-0.6c0.2-0.2,0.4-0.4,0.8-0.8c0.4-0.3,0.6-0.6,0.8-0.8
			c0.2-0.2,0.4-0.3,0.6-0.5c0.2-0.1,0.4-0.3,0.6-0.5c0.2-0.2,0.4-0.3,0.6-0.5c0.2-0.2,0.5-0.4,0.9-0.6c0.4-0.3,0.8-0.5,1.3-0.8
			c0.4-0.2,0.8-0.4,1.1-0.6c0.2-0.1,0.4-0.2,0.6-0.3c0.2-0.1,0.6-0.3,1-0.5c0.4-0.2,0.8-0.3,1-0.4c0.3-0.1,0.3-0.1,0.7-0.3
			c0.2-0.1,0.4-0.2,0.7-0.3c0.2-0.1,0.4-0.2,0.7-0.3c0.3-0.1,0.5-0.2,0.8-0.3c0.2-0.1,0.5-0.2,0.7-0.2c0.2-0.1,0.6-0.2,1.1-0.4
			c0.5-0.2,0.9-0.3,1.1-0.4c0.3-0.1,0.5-0.2,0.8-0.3c0.3-0.1,0.6-0.2,1.1-0.4c0.5-0.1,0.9-0.3,1.2-0.3c0.3-0.1,0.6-0.2,0.9-0.2
			c0.3-0.1,0.5-0.1,0.7-0.2c0.2-0.1,0.5-0.1,0.7-0.2c0.3-0.1,0.7-0.1,1.2-0.2c0.5-0.1,0.9-0.1,1.2-0.1h1c0.4,0,0.8,0,1.3,0
			c0.4,0,0.9,0,1.2,0.1c0.4,0,0.8,0.1,1.1,0.1c0.4,0,0.7,0.1,1,0.2c0.3,0.1,0.6,0.1,1,0.2c0.2,0,0.3,0.1,0.4,0.1
			C57.3,26.6,58,26.6,58.6,27z M58.5,31.1c-0.2-0.1-0.4-0.2-0.7-0.2c-0.3-0.1-0.5-0.2-0.9-0.3c-0.3-0.1-0.6-0.2-0.8-0.2
			c-0.2-0.1-0.4-0.1-0.7-0.2c-0.2-0.1-0.5-0.1-0.7-0.2c-0.3,0-0.5-0.1-0.8-0.1c-0.3,0-0.6-0.1-0.9-0.1c-0.3,0-0.7,0-1.1-0.1
			c-0.4,0-0.8,0-1.2,0h-1c-0.2,0-0.5,0-0.9,0.1c-0.4,0-0.7,0.1-0.9,0.1c-0.2,0-0.5,0.1-0.7,0.1c-0.2,0-0.5,0.1-0.7,0.2
			c-0.2,0-0.5,0.1-0.7,0.2c-0.3,0.1-0.6,0.2-1.1,0.3c-0.5,0.1-0.8,0.2-1,0.3c-0.2,0.1-0.5,0.2-0.8,0.3c-0.3,0.1-0.7,0.2-1.2,0.4
			c-0.5,0.2-0.8,0.3-1.1,0.4c-0.2,0.1-0.5,0.2-0.7,0.2c-0.2,0.1-0.4,0.1-0.6,0.2c-0.2,0.1-0.5,0.2-0.7,0.3c-0.2,0.1-0.4,0.2-0.6,0.2
			c-0.3,0.1-0.3,0.1-0.6,0.3c-0.2,0.1-0.5,0.2-1,0.4c-0.4,0.2-0.7,0.3-0.9,0.4c-0.2,0.1-0.4,0.2-0.7,0.3c-0.2,0.1-0.5,0.2-0.9,0.4
			c-0.4,0.2-0.7,0.4-1.1,0.6c-0.3,0.2-0.6,0.4-0.8,0.5c-0.2,0.1-0.4,0.3-0.5,0.4c-0.2,0.1-0.4,0.3-0.5,0.4c-0.2,0.1-0.3,0.3-0.5,0.4
			c-0.2,0.1-0.4,0.4-0.7,0.6c-0.3,0.3-0.6,0.5-0.7,0.7c-0.1,0.1-0.3,0.3-0.4,0.5c-0.1,0.1-0.3,0.4-0.6,0.7c-0.3,0.4-0.5,0.6-0.6,0.8
			c-0.1,0.2-0.2,0.4-0.4,0.5c-0.1,0.2-0.2,0.4-0.4,0.6c-0.1,0.2-0.2,0.4-0.3,0.6c-0.1,0.2-0.2,0.4-0.3,0.6c-0.1,0.2-0.2,0.4-0.3,0.6
			c-0.1,0.2-0.2,0.5-0.4,0.9c-0.2,0.4-0.3,0.8-0.5,1.1c-0.1,0.4-0.3,0.8-0.4,1.2c-0.1,0.4-0.2,0.8-0.3,1.2c-0.1,0.4-0.1,0.8-0.2,1
			c0,0.2-0.1,0.4-0.1,0.6c0,0.2,0,0.4-0.1,0.7c0,0.2,0,0.5,0,0.7c0,0.2,0,0.5,0,0.7c0,0.2,0,0.5,0,0.7v1.5c0,0.2,0,0.5,0,0.7
			c0,0.2,0,0.4,0,0.7c0,0.3,0.1,0.5,0.1,0.7c0,0.2,0.1,0.4,0.1,0.7c0,0.3,0.1,0.5,0.2,0.8c0.1,0.3,0.1,0.5,0.2,0.8
			c0.1,0.2,0.1,0.5,0.2,0.7c0.1,0.3,0.1,0.5,0.2,0.8c0.1,0.2,0.2,0.6,0.3,1c0.2,0.5,0.3,0.8,0.4,1c0.1,0.2,0.2,0.5,0.3,0.7
			c0.1,0.2,0.3,0.6,0.5,1.1c0.2,0.4,0.4,0.8,0.6,1.2c0.2,0.4,0.4,0.7,0.7,1.1c0.2,0.3,0.5,0.6,0.7,0.9c0.3,0.3,0.6,0.6,0.8,0.9
			c0.3,0.3,0.5,0.5,0.7,0.6c0.2,0.1,0.3,0.3,0.5,0.4c0.2,0.1,0.4,0.3,0.7,0.6c0.3,0.3,0.7,0.5,1,0.7c0.3,0.2,0.6,0.4,0.7,0.5
			c0.2,0.1,0.4,0.2,0.5,0.3c0.2,0.1,0.5,0.3,0.9,0.5c0.4,0.2,0.7,0.4,1.1,0.5c0.4,0.2,0.8,0.3,1.2,0.5c0.4,0.2,0.8,0.3,1.2,0.4
			c0.4,0.1,0.8,0.2,1.2,0.3c0.4,0.1,0.7,0.2,1,0.2c0.2,0,0.4,0.1,0.6,0.1c0.2,0,0.4,0.1,0.6,0.1c0.2,0,0.4,0,0.7,0.1
			c0.2,0,0.5,0,0.7,0c0.2,0,0.4,0,0.7,0c0.3,0,0.5,0,0.7,0c0.2,0,0.4,0,0.7,0h2.2c0.2,0,0.5,0,0.7,0c0.2,0,0.5,0,0.7,0
			c0.3,0,0.5,0,0.7,0c0.2,0,0.5,0,1-0.1c0.4,0,0.8-0.1,1.2-0.1c0.4,0,0.7-0.1,0.9-0.1c0.2,0,0.5-0.1,0.8-0.1c0.4,0,0.6-0.1,0.9-0.1
			c0.2,0,0.5-0.1,0.8-0.2c0.3-0.1,0.7-0.2,1.1-0.3c0.4-0.1,0.8-0.2,1.1-0.3c0.4-0.1,0.7-0.2,1.1-0.3c0.3-0.1,0.7-0.2,1-0.4
			c0.4-0.2,0.7-0.3,1-0.5c0.3-0.2,0.6-0.3,0.9-0.5c0.3-0.2,0.6-0.3,0.9-0.5c0.3-0.2,0.6-0.4,0.8-0.6c0.3-0.2,0.5-0.4,0.8-0.6
			c0.3-0.2,0.5-0.4,0.7-0.6c0.2-0.2,0.4-0.4,0.6-0.6c0.2-0.2,0.4-0.5,0.6-0.7c0.2-0.2,0.4-0.4,0.6-0.7c0.2-0.2,0.3-0.5,0.5-0.7
			c0.2-0.3,0.3-0.5,0.5-0.8c0.2-0.3,0.3-0.6,0.5-0.9c0.2-0.3,0.3-0.6,0.4-1c0.1-0.3,0.2-0.6,0.4-1c0.1-0.3,0.2-0.6,0.3-0.9
			c0.1-0.3,0.2-0.6,0.2-0.9c0.1-0.3,0.1-0.6,0.2-0.9c0.1-0.3,0.1-0.6,0.2-0.9c0-0.3,0.1-0.6,0.1-0.9c0-0.3,0.1-0.6,0.1-1
			c0-0.3,0.1-0.7,0.1-1c0-0.3,0.1-0.7,0.1-1.1c0-0.4,0.1-0.7,0.1-1.1c0-0.3,0-0.7,0.1-1c0-0.3,0-0.7,0-1v-1c0-0.3,0-0.5-0.1-0.8
			c0-0.3-0.1-0.6-0.2-1c-0.1-0.3-0.1-0.7-0.2-1c-0.1-0.3-0.2-0.7-0.3-1.1c-0.1-0.4-0.2-0.7-0.3-1.1c-0.1-0.4-0.2-0.8-0.3-1.1
			c-0.1-0.3-0.2-0.6-0.2-0.9c-0.1-0.3-0.2-0.6-0.2-0.9c-0.1-0.3-0.1-0.6-0.2-0.9c-0.1-0.3-0.1-0.5-0.2-0.8c-0.1-0.3-0.2-0.5-0.2-0.7
			c-0.1-0.3-0.2-0.5-0.3-0.7c-0.1-0.2-0.2-0.5-0.3-0.7c-0.1-0.2-0.2-0.5-0.4-0.7c-0.1-0.2-0.3-0.5-0.4-0.7c-0.1-0.2-0.3-0.4-0.4-0.6
			c-0.2-0.2-0.3-0.4-0.5-0.7c-0.2-0.2-0.3-0.4-0.6-0.6c-0.2-0.2-0.4-0.4-0.6-0.6c-0.2-0.2-0.5-0.4-0.7-0.6c-0.3-0.2-0.5-0.4-0.8-0.6
			c-0.3-0.2-0.5-0.4-0.7-0.6c-0.3-0.2-0.5-0.4-0.7-0.6c-0.2-0.2-0.4-0.3-0.5-0.5c-0.2-0.1-0.3-0.3-0.5-0.4c-0.1-0.1-0.3-0.3-0.6-0.4
			C58.8,31.2,58.6,31.2,58.5,31.1z"/>
		<path d="M28.4,94.6c-0.1,0.9-0.9,1.6-1.8,1.6c-0.9-0.1-1.6-0.9-1.5-1.8c0.1-0.8,0.2-1.4,0.4-1.8c0.1-0.2,0.2-0.4,0.3-0.7
			c0.1-0.2,0.2-0.5,0.4-0.7c0.1-0.3,0.3-0.5,0.4-0.8c0.1-0.2,0.3-0.5,0.5-0.7c0.2-0.2,0.3-0.5,0.5-0.8c0.2-0.3,0.4-0.5,0.6-0.8
			c0.2-0.3,0.4-0.5,0.6-0.8c0.2-0.3,0.5-0.6,0.7-0.9c0.2-0.3,0.5-0.5,0.7-0.8c0.3-0.2,0.5-0.5,0.8-0.7c0.3-0.2,0.6-0.5,0.9-0.7
			c0.3-0.2,0.6-0.4,0.9-0.6c0.3-0.2,0.6-0.4,0.9-0.5c0.3-0.2,0.6-0.3,0.8-0.5c0.3-0.2,0.6-0.3,0.9-0.5c0.3-0.1,0.6-0.3,0.9-0.4
			c0.3-0.1,0.7-0.3,1-0.4c0.3-0.1,0.7-0.2,1.1-0.3c0.4-0.1,0.7-0.2,1.1-0.3c0.4-0.1,0.7-0.2,1.1-0.2c0.3-0.1,0.7-0.1,1-0.2
			c0.3-0.1,0.7-0.1,1-0.2c0.3,0,0.6-0.1,0.9-0.1c0.3,0,0.7-0.1,1-0.1c0.3,0,0.7,0,1,0h0.9c0.3,0,0.6,0,0.9,0c0.4,0,0.7,0,1.1,0.1
			c0.3,0,0.6,0.1,0.9,0.2c0.3,0.1,0.6,0.1,1,0.2c0.3,0.1,0.6,0.1,0.9,0.2c0.3,0.1,0.7,0.2,1,0.3c0.3,0.1,0.6,0.2,0.9,0.3
			c0.3,0.1,0.6,0.2,0.9,0.3c0.3,0.1,0.5,0.2,0.8,0.3c0.3,0.1,0.6,0.2,0.8,0.4c0.3,0.1,0.5,0.3,0.8,0.4c0.3,0.1,0.5,0.3,0.8,0.5
			c0.3,0.2,0.6,0.4,0.8,0.6c0.2,0.2,0.4,0.4,0.7,0.6c0.2,0.2,0.4,0.5,0.7,0.7c0.2,0.2,0.4,0.5,0.6,0.7c0.2,0.2,0.3,0.5,0.5,0.7
			c0.1,0.2,0.3,0.4,0.4,0.6c0.1,0.2,0.3,0.4,0.4,0.6c0.1,0.2,0.3,0.5,0.4,0.7c0.1,0.2,0.2,0.4,0.3,0.6c0.1,0.2,0.2,0.4,0.4,0.6
			c0.1,0.2,0.2,0.4,0.4,0.7c0.1,0.2,0.2,0.4,0.3,0.6c0.1,0.2,0.2,0.5,0.4,0.8c0.1,0.3,0.3,0.5,0.4,0.8c0.1,0.2,0.2,0.4,0.3,0.6
			c0.1,0.2,0.3,0.5,0.4,0.7l0.2,0.3c0.4,0.8,0.1,1.9-0.7,2.3c-0.8,0.4-1.8,0.1-2.3-0.7l-0.2-0.3c-0.1-0.2-0.2-0.4-0.3-0.6
			c-0.1-0.2-0.3-0.5-0.4-0.7c-0.1-0.2-0.3-0.5-0.4-0.8c-0.1-0.3-0.3-0.5-0.4-0.7c-0.1-0.2-0.2-0.4-0.3-0.6c-0.1-0.2-0.2-0.4-0.3-0.6
			c-0.1-0.2-0.2-0.4-0.3-0.6c-0.1-0.2-0.2-0.4-0.4-0.6c-0.1-0.2-0.2-0.4-0.3-0.5c-0.1-0.2-0.3-0.4-0.4-0.6c-0.1-0.2-0.3-0.4-0.4-0.6
			c-0.1-0.2-0.3-0.4-0.4-0.6c-0.1-0.2-0.3-0.4-0.4-0.6c-0.1-0.2-0.3-0.3-0.4-0.5c-0.2-0.2-0.3-0.3-0.5-0.5c-0.1-0.1-0.3-0.2-0.5-0.4
			c-0.2-0.1-0.4-0.2-0.5-0.3c-0.2-0.1-0.4-0.2-0.6-0.3c-0.2-0.1-0.4-0.2-0.7-0.3c-0.2-0.1-0.5-0.2-0.7-0.3c-0.2-0.1-0.4-0.2-0.7-0.2
			c-0.3-0.1-0.6-0.2-0.9-0.3c-0.3-0.1-0.5-0.2-0.8-0.2c-0.3-0.1-0.6-0.1-0.9-0.2c-0.3-0.1-0.6-0.1-0.9-0.2c-0.3-0.1-0.6-0.1-0.8-0.1
			c-0.2,0-0.4,0-0.6-0.1c-0.3,0-0.6,0-0.9,0h-0.9c-0.3,0-0.6,0-0.8,0c-0.3,0-0.5,0-0.8,0.1c-0.3,0-0.6,0.1-0.9,0.1
			c-0.3,0-0.5,0.1-0.8,0.1c-0.3,0.1-0.6,0.1-1,0.2c-0.3,0.1-0.6,0.1-1,0.2c-0.3,0.1-0.7,0.2-1,0.2c-0.3,0.1-0.6,0.2-0.9,0.3
			c-0.3,0.1-0.5,0.2-0.8,0.3c-0.3,0.1-0.5,0.2-0.8,0.4c-0.2,0.1-0.5,0.2-0.7,0.4c-0.3,0.1-0.5,0.3-0.8,0.4c-0.2,0.1-0.5,0.3-0.7,0.4
			c-0.2,0.2-0.5,0.3-0.7,0.5c-0.2,0.2-0.4,0.3-0.6,0.5c-0.2,0.2-0.4,0.4-0.6,0.6c-0.2,0.2-0.4,0.4-0.6,0.6c-0.2,0.2-0.4,0.4-0.5,0.6
			c-0.2,0.2-0.4,0.5-0.6,0.7c-0.2,0.2-0.4,0.5-0.5,0.7c-0.2,0.2-0.3,0.4-0.4,0.6c-0.1,0.2-0.3,0.4-0.4,0.6c-0.1,0.2-0.2,0.4-0.3,0.6
			c-0.1,0.2-0.2,0.4-0.3,0.6c-0.1,0.2-0.2,0.4-0.3,0.6C28.5,93.9,28.5,94.2,28.4,94.6z"/>
		<path d="M49.8,56.6C49.8,56.6,49.8,56.6,49.8,56.6C49.8,56.6,49.8,56.6,49.8,56.6z M48.6,54.2c-0.1-0.2-0.2-0.4-0.3-0.7
			c-0.1-0.3-0.2-0.5-0.4-0.8c-0.1-0.2-0.2-0.5-0.3-0.8c-0.1-0.3-0.3-0.6-0.4-1c-0.1-0.3-0.3-0.7-0.4-1.1c-0.1-0.4-0.3-0.8-0.4-1.2
			c-0.1-0.4-0.2-0.7-0.3-0.9c-0.1-0.2-0.2-0.5-0.3-1c-0.1-0.4-0.2-0.7-0.3-1c-0.1-0.2-0.2-0.5-0.3-0.9c-0.1-0.3-0.2-0.7-0.3-1
			c-0.1-0.3-0.3-0.8-0.5-1.4c-0.3-0.9,0.2-1.9,1.1-2.2c0.9-0.3,1.8,0.2,2.1,1.1c0.2,0.6,0.3,1,0.4,1.3c0.1,0.3,0.2,0.7,0.4,1.1
			c0.1,0.4,0.2,0.7,0.3,0.9c0.1,0.2,0.2,0.6,0.3,1c0.1,0.4,0.2,0.7,0.3,0.9c0.1,0.2,0.2,0.5,0.3,0.9c0.1,0.4,0.3,0.7,0.4,1.1
			c0.1,0.4,0.3,0.7,0.4,1c0.1,0.3,0.3,0.6,0.4,0.9c0.1,0.3,0.3,0.6,0.4,0.8c0.1,0.2,0.2,0.5,0.3,0.7c0.1,0.3,0.2,0.5,0.3,0.7
			c0.1,0.2,0.2,0.4,0.3,0.7c0.1,0.3,0.2,0.5,0.3,0.7c0.1,0.2,0.2,0.3,0.2,0.4c0.9,1.2,0.2,2.7-1.1,3c-0.3,0.1-0.7,0.2-1,0.2
			c-0.3,0-0.5,0.1-0.9,0.1c-0.3,0-0.6,0.1-0.9,0.1c-0.3,0-0.6,0-0.8,0.1c-0.2,0-0.5,0-0.8,0c-0.3,0-0.6,0-0.8,0c-0.3,0-0.5,0-0.7,0
			c-0.2,0-0.4,0-0.7,0c-0.2,0-0.4,0-0.7,0.1c-0.3,0-0.5,0.1-0.8,0.1l-0.4,0c-0.9,0.1-1.8-0.6-1.9-1.5c-0.1-0.9,0.5-1.8,1.5-1.9
			l0.4,0c0.3,0,0.5-0.1,0.8-0.1c0.3,0,0.6-0.1,0.8-0.1c0.2,0,0.5,0,0.8,0c0.3,0,0.5,0,0.8,0c0.3,0,0.5,0,0.8,0c0.3,0,0.5,0,0.8,0
			c0.2,0,0.4,0,0.6,0c0.1,0,0.3,0,0.4,0C48.7,54.5,48.6,54.3,48.6,54.2z"/>
		<path d="M42,67.7c-0.9,0.2-1.8-0.4-2-1.3c-0.2-0.9,0.4-1.8,1.3-2c0.5-0.1,0.9-0.2,1.2-0.3c0.3-0.1,0.6-0.2,1-0.2
			c0.3-0.1,0.7-0.1,1.1-0.2c0.4,0,0.7-0.1,1.1-0.1c0.3,0,0.7,0,1,0h4.8c0.9,0,1.7,0.8,1.7,1.7S52.5,67,51.5,67h-4.8
			c-0.3,0-0.7,0-1,0c-0.3,0-0.6,0-0.8,0c-0.2,0-0.5,0.1-0.7,0.1c-0.3,0.1-0.5,0.1-0.8,0.2C43,67.5,42.6,67.6,42,67.7z"/>
		<path d="M33.9,48.1C33.9,48.1,33.9,48.1,33.9,48.1L33.9,48.1z M33.4,49.4c-0.8,0.4-1.8,0-2.2-0.8c-0.5-1-0.5-1.9,0.2-2.8l0.2-0.3
			c0.6-0.7,1.7-0.8,2.4-0.1c0.6,0.5,0.7,1.4,0.4,2.1C34.5,48.2,34.1,49,33.4,49.4z"/>
		<path d="M56.7,48.5c-1,0-1.8-0.8-1.8-1.8c0-1,0.8-1.8,1.8-1.8c1,0,1.8,0.8,1.8,1.8C58.4,47.7,57.6,48.5,56.7,48.5z"/>
		<path d="M54,45.4c0.3-0.6,0.7-1,1.2-1.3c0.8-0.5,1.8-0.4,2.6,0.3c0.7,0.6,0.9,1.5,0.6,2.4c-0.1,0.5-0.4,1-0.8,1.4l-0.3,0.3
			c-0.7,0.7-1.7,0.7-2.4,0c-0.1-0.1-0.1-0.1-0.2-0.2C53.9,47.4,53.5,46.4,54,45.4z"/>
		<path d="M31,44.7c-0.8,0.5-1.8,0.1-2.3-0.7c-0.4-0.8-0.1-1.9,0.7-2.3c0.4-0.2,0.7-0.4,0.9-0.5c0.4-0.2,0.4-0.2,0.7-0.4
			c0.2-0.1,0.4-0.3,0.7-0.4c0.2-0.1,0.5-0.3,0.7-0.5c0.3-0.2,0.6-0.3,0.8-0.5c0.4-0.2,0.4-0.2,0.8-0.5c0.3-0.2,0.6-0.3,0.8-0.5
			l0.4-0.2c0.8-0.5,1.8-0.1,2.3,0.7c0.4,0.8,0.1,1.9-0.7,2.3l-0.4,0.2c-0.3,0.1-0.5,0.3-0.8,0.4c-0.4,0.2-0.4,0.2-0.8,0.5
			c-0.3,0.2-0.5,0.3-0.8,0.5c-0.3,0.2-0.5,0.3-0.7,0.5c-0.2,0.2-0.5,0.3-0.7,0.4c-0.3,0.2-0.3,0.2-0.7,0.4
			C31.8,44.2,31.4,44.4,31,44.7z"/>
		<path d="M53.8,41.8c-0.9,0.4-1.8-0.1-2.2-0.9c-0.4-0.9,0.1-1.9,0.9-2.2c0.6-0.3,1.2-0.4,1.7-0.5c0.4,0,0.7-0.1,1-0.1
			c0.3,0,0.6,0,0.9-0.1c0.3,0,0.6,0,0.9,0c0.3,0,0.6,0,0.9,0h0.8c0.3,0,0.5,0,0.8,0l0.4,0c0.9,0,1.7,0.8,1.6,1.7
			c0,0.9-0.8,1.7-1.7,1.7l-0.4,0c-0.3,0-0.5,0-0.8,0h-0.8c-0.3,0-0.6,0-0.8,0c-0.3,0-0.5,0-0.8,0c-0.3,0-0.5,0-0.7,0.1
			c-0.3,0-0.6,0.1-0.9,0.1C54.4,41.6,54.1,41.6,53.8,41.8z"/>
		<path d="M6.6,32.7c-0.8-0.4-1.2-1.4-0.9-2.3c0.4-0.9,1-1.6,2-1.7c0.3,0,0.6-0.1,0.9-0.1c0.3,0,0.5,0,0.8,0c0.4,0,0.9,0.1,1.3,0.3
			c0.5,0.2,0.9,0.5,1.2,0.9c0.3,0.4,0.6,0.7,0.7,1.2c0.2,0.4,0.3,0.7,0.3,1.1c0,0.3,0.1,0.7,0.1,1c0,0.4,0,0.8-0.1,1.1
			c-0.1,0.3-0.2,0.6-0.3,0.9c0,0,0,0.1,0,0.1l0.2,0.3c0.4,0.9,0,1.9-0.8,2.3s-1.8,0-2.2-0.9l-0.2-0.3c-0.2-0.5-0.3-1-0.3-1.5
			c0-0.4,0.1-0.8,0.2-1.2c0.1-0.2,0.1-0.3,0.2-0.5c0-0.1,0-0.2,0-0.3c0-0.1,0-0.3,0-0.5c0-0.1,0-0.2-0.1-0.3c0-0.1-0.1-0.1-0.1-0.2
			c0,0-0.1-0.1-0.1-0.1c-0.1,0-0.1,0-0.1,0c-0.2,0-0.4,0-0.5,0C8.2,32.7,7.4,33,6.6,32.7z"/>
		<path d="M14.2,43.9c-1,0-1.8-0.8-1.8-1.8s0.8-1.8,1.8-1.8s1.8,0.8,1.8,1.8S15.2,43.9,14.2,43.9z"/>
		<path d="M21.4,12.7c0.1,0,0.1-0.1,0.1-0.2c0.1-0.3,0.1-0.4,0.1-0.3c0,0.1,0.1,0.2,0.1,0.2C21.6,12.5,21.5,12.6,21.4,12.7
			L21.4,12.7z M20.7,14.4c-0.9,0.4-1.8,0-2.2-0.9c-0.3-0.8-0.4-1.6-0.2-2.3c0.2-0.5,0.5-0.9,0.9-1.3c0.3-0.2,0.6-0.4,0.9-0.6
			C20.6,9.2,21,9.1,21.4,9c0.4-0.1,0.8-0.1,1.2-0.1c0.4,0,0.7,0,1,0.1c0.5,0.1,1,0.4,1.5,0.8c0.5,0.4,0.8,1,0.9,1.6
			c0.1,0.4,0.1,0.8,0.1,1.2c0,0.4-0.1,0.8-0.2,1.2c-0.1,0.3-0.2,0.6-0.3,0.9c-0.1,0.2-0.1,0.5-0.2,0.7c-0.1,0.2-0.1,0.4-0.1,0.6
			c0,0.1,0,0.1,0,0.2c0.2,0.3,0.3,0.6,0.4,0.9l0.1,0.3c0.3,0.9-0.1,1.9-1,2.2c-0.9,0.3-1.8-0.1-2.2-1l-0.1-0.3
			c0-0.1-0.1-0.2-0.1-0.3c-0.3-0.4-0.4-0.9-0.5-1.4c0-0.4,0-0.8,0-1.2c0.1-0.3,0.1-0.6,0.2-1c0.1-0.3,0.2-0.5,0.2-0.8
			c0.1-0.2,0.1-0.4,0.2-0.7c0-0.1,0-0.2,0-0.3c0-0.1,0-0.1,0-0.2c-0.1,0-0.1,0-0.2,0c-0.1,0-0.3,0-0.5,0.1c-0.2,0-0.3,0.1-0.4,0.1
			C21.9,13.3,21.5,14.1,20.7,14.4z M23,12.3C23,12.3,23,12.3,23,12.3C23,12.3,23,12.3,23,12.3L23,12.3z"/>
		<path d="M25.7,26.4c-1,0-1.8-0.8-1.8-1.8c0-1,0.8-1.8,1.8-1.8s1.8,0.8,1.8,1.8C27.5,25.6,26.7,26.4,25.7,26.4z"/>
		<path d="M38.2,10c0.3-0.1,0.5-0.3,0.5-0.3c0,0.1-0.1,0.2-0.1,0.2C38.5,10,38.4,10,38.2,10L38.2,10z M36.6,10.8
			c-0.9-0.3-1.4-1.2-1.1-2.1c0.3-1,0.9-1.7,1.9-2c0.4-0.1,0.7-0.2,1.1-0.2c0.3,0,0.6,0,0.8,0c0.3,0,0.6,0,1,0.1
			c0.5,0.1,1,0.2,1.4,0.5c0.5,0.3,0.8,0.8,1.1,1.4C42.9,9,43,9.5,43,10c0,0.5-0.1,1-0.3,1.4c-0.1,0.3-0.2,0.5-0.4,0.8
			c-0.1,0.2-0.2,0.4-0.3,0.6c-0.1,0.1-0.1,0.2-0.1,0.4c0,0.1,0,0.2,0,0.3c0,0.2,0,0.5,0,0.8v0.4c0,0.9-0.8,1.7-1.7,1.7
			c-0.9,0-1.7-0.8-1.7-1.7v-0.4c0-0.3,0-0.6,0-0.8c0-0.4,0.1-0.7,0.1-1.1c0.1-0.3,0.2-0.7,0.4-1c0.1-0.2,0.2-0.5,0.3-0.7
			c0.1-0.2,0.2-0.4,0.3-0.6c0,0,0-0.1,0-0.1c-0.1,0-0.3,0-0.4,0c-0.2,0-0.4,0-0.6,0c0,0,0,0-0.1,0C38.2,10.7,37.4,11.1,36.6,10.8z
			 M39.6,9.8C39.6,9.8,39.6,9.8,39.6,9.8C39.6,9.8,39.6,9.8,39.6,9.8z"/>
		<path d="M40.1,19.6c0.1-0.9,1-1.6,1.9-1.5c0.9,0.1,1.6,1,1.4,1.9l-0.1,0.7c-0.1,0.9-1,1.6-1.9,1.5c-0.9-0.1-1.6-1-1.4-1.9
			L40.1,19.6z"/>
		<path d="M59.1,8.1c0.2-0.1,0.3-0.3,0.2-0.2c0,0,0,0.1,0,0.1C59.3,8,59.3,8,59.1,8.1L59.1,8.1z M57.5,9.3c-0.9-0.1-1.6-1-1.4-1.9
			c0.1-0.9,0.5-1.7,1.2-2.1c0.3-0.2,0.7-0.4,1.1-0.6c0.4-0.2,0.7-0.3,1.1-0.4c0.4-0.1,0.8-0.2,1.2-0.2c0.4,0,0.9,0,1.3,0.1
			c0.6,0.2,1.2,0.5,1.6,1c0.4,0.5,0.6,1,0.7,1.5c0.1,0.5,0.1,0.9,0,1.3c-0.1,0.4-0.2,0.9-0.5,1.4c-0.2,0.3-0.4,0.7-0.6,1
			c-0.2,0.3-0.3,0.5-0.5,0.8c-0.2,0.3-0.3,0.5-0.5,0.7c-0.1,0.2-0.3,0.4-0.5,0.7c-0.1,0.2-0.2,0.4-0.3,0.5c0,0.2,0,0.3,0,0.5v0.4
			c0,0.9-0.8,1.7-1.7,1.7c-0.9,0-1.7-0.8-1.7-1.7v-0.4c0-0.3,0-0.6,0-0.9c0-0.5,0.2-1,0.5-1.4c0.1-0.2,0.3-0.5,0.5-0.7
			c0.2-0.2,0.3-0.5,0.4-0.7c0.1-0.2,0.3-0.4,0.4-0.7c0.2-0.3,0.3-0.5,0.5-0.8c0.1-0.2,0.3-0.5,0.4-0.7C61,7.8,61,7.7,61,7.7
			c0,0,0-0.1,0-0.1c-0.1,0-0.1,0-0.2,0c-0.2,0-0.4,0-0.6,0.1c-0.2,0.1-0.4,0.1-0.6,0.2c-0.1,0-0.2,0.1-0.2,0.1
			C59.2,8.9,58.4,9.5,57.5,9.3z M61.5,13.2C61.5,13.2,61.6,13.2,61.5,13.2C61.6,13.2,61.6,13.2,61.5,13.2L61.5,13.2z"/>
		<path d="M60.1,21.7c-1,0-1.8-0.8-1.8-1.8c0-1,0.8-1.8,1.8-1.8c1,0,1.8,0.8,1.8,1.8C61.9,20.9,61.1,21.7,60.1,21.7z"/>
		<path d="M77.3,17.6C77.4,17.6,77.4,17.6,77.3,17.6C77.4,17.6,77.4,17.6,77.3,17.6L77.3,17.6z M77.2,18.1c-0.1,0.3-0.2,0.6-0.4,1
			c-0.2,0.3-0.3,0.6-0.5,0.9c-0.2,0.3-0.3,0.5-0.5,0.7c-0.2,0.2-0.3,0.4-0.5,0.7l-0.2,0.3c-0.6,0.7-1.6,0.9-2.4,0.3
			s-0.9-1.7-0.3-2.4l0.2-0.3c0.1-0.2,0.3-0.4,0.4-0.5c0.1-0.2,0.2-0.4,0.4-0.6c0.1-0.2,0.2-0.3,0.3-0.5c0.1-0.2,0.2-0.4,0.2-0.5
			c0.1-0.3,0.2-0.5,0.3-0.8c0.3-0.7,0.7-1.2,1.4-1.5c0.1-0.1,0.3-0.1,0.4-0.2c0.2-0.1,0.3-0.2,0.4-0.3c0.1-0.1,0.2-0.2,0.3-0.4
			c0.1-0.2,0.3-0.4,0.4-0.6c0.1-0.2,0.2-0.3,0.3-0.5c0-0.2,0-0.3,0-0.4c0-0.1,0-0.1-0.1-0.2c0,0-0.1-0.1-0.1-0.1c-0.1,0-0.2,0-0.4,0
			c-0.2,0-0.4,0-0.6,0c-0.1,0-0.3,0-0.4,0.1c0.2-0.1,0.2,0,0,0.1c-0.5,0.8-1.6,1-2.3,0.4s-0.9-1.6-0.4-2.4c0.5-0.7,1-1.2,1.6-1.4
			c0.4-0.1,0.7-0.2,1.1-0.2c0.3,0,0.6,0,0.9,0c0.4,0,0.8,0,1.1,0.1c0.5,0.1,0.9,0.3,1.3,0.6c0.3,0.3,0.6,0.6,0.9,0.9
			c0.2,0.3,0.4,0.7,0.5,1.1c0.1,0.4,0.2,0.8,0.2,1.3c0,0.6-0.1,1.1-0.3,1.6c-0.2,0.3-0.3,0.6-0.5,0.9c-0.2,0.3-0.4,0.5-0.6,0.7
			c-0.2,0.3-0.5,0.5-0.7,0.8c-0.3,0.2-0.5,0.4-0.8,0.6c-0.2,0.1-0.4,0.2-0.6,0.3C77.2,18,77.2,18,77.2,18.1z"/>
		<path d="M70.4,27.6c-1,0-1.8-0.8-1.8-1.8s0.8-1.8,1.8-1.8c1,0,1.8,0.8,1.8,1.8S71.4,27.6,70.4,27.6z"/>
		<path d="M86.9,25.2c0.6-0.2,0.8-0.6,0.8-0.9c0,0.3,0,0.5-0.1,0.7c0,0-0.1,0-0.1,0C87.3,25.1,87.1,25.1,86.9,25.2L86.9,25.2z
			 M86,26.1c-0.9,0-1.7-0.7-1.7-1.7c0-1.2,0.5-2.2,1.6-2.5c0.4-0.1,0.7-0.2,1.1-0.2c0.3,0,0.6-0.1,1-0.1c0.5,0,0.9,0.1,1.3,0.3
			c0.5,0.2,1,0.6,1.3,1c0.3,0.4,0.5,0.8,0.6,1.2c0.1,0.4,0.2,0.8,0.2,1.2c0,0.4,0,0.8,0,1.1c0,0.5-0.2,0.9-0.4,1.4
			c-0.2,0.4-0.4,0.7-0.6,1c-0.2,0.3-0.5,0.6-0.7,0.8c-0.2,0.2-0.5,0.4-0.7,0.6c-0.3,0.2-0.6,0.4-0.9,0.6c-0.4,0.2-0.7,0.3-1,0.4
			c-0.2,0-0.3,0.1-0.5,0.1c0,0,0,0,0,0c-0.1,0.3-0.3,0.6-0.4,0.9c-0.2,0.3-0.3,0.5-0.5,0.8c-0.2,0.3-0.4,0.5-0.6,0.7
			c-0.2,0.2-0.5,0.5-0.8,0.6l-0.3,0.2c-0.8,0.5-1.8,0.3-2.3-0.5s-0.3-1.9,0.5-2.4l0.3-0.2c0.1-0.1,0.2-0.1,0.3-0.2
			c0.1-0.1,0.2-0.2,0.3-0.3c0.1-0.2,0.2-0.3,0.3-0.5c0.1-0.1,0.2-0.3,0.2-0.5c0.1-0.4,0.3-0.7,0.5-1c0.4-0.6,1-0.9,1.7-1.1
			c0.2,0,0.3-0.1,0.5-0.1c0.1,0,0.2-0.1,0.4-0.2c0.2-0.1,0.3-0.2,0.4-0.2c0.1-0.1,0.3-0.2,0.5-0.4c0.1-0.1,0.2-0.3,0.4-0.4
			c0.1-0.1,0.2-0.3,0.3-0.4c0-0.1,0.1-0.1,0.1-0.2c0-0.2,0-0.3,0-0.5c0-0.2,0-0.3-0.1-0.5c0,0,0-0.1,0-0.1c-0.1,0-0.3,0-0.4,0
			C87.3,25.7,86.7,26.1,86,26.1z M87.9,25C87.9,24.9,87.9,24.9,87.9,25C87.9,24.9,87.9,24.9,87.9,25L87.9,25z M86.7,31.1
			C86.7,31.1,86.7,31.1,86.7,31.1C86.7,31.1,86.7,31.1,86.7,31.1L86.7,31.1z"/>
		<path d="M78.4,40.4c-1,0-1.8-0.8-1.8-1.8s0.8-1.8,1.8-1.8c1,0,1.8,0.8,1.8,1.8S79.4,40.4,78.4,40.4z"/>
	</g>
</g>
</svg>
