<?xml version="1.0" encoding="utf-8"?>
<!-- Generator: Adobe Illustrator 23.0.2, SVG Export Plug-In . SVG Version: 6.00 Build 0)  -->
<svg version="1.1" id="Layer_1" xmlns="http://www.w3.org/2000/svg" xmlns:xlink="http://www.w3.org/1999/xlink" x="0px" y="0px"
	 viewBox="0 0 52 52.5" style="enable-background:new 0 0 52 52.5;" xml:space="preserve">
<style type="text/css">
	.st0{fill:#1A5560;}
</style>
<g>
	<g>
		<path class="st0" d="M40.4,50H11.3c-2.6,0-4.7-2.1-4.7-4.7v-0.9c0-6.2,5.1-11.3,11.3-11.3h16c6.2,0,11.3,5.1,11.3,11.3v0.9
			C45.1,47.9,43,50,40.4,50z M17.9,35.1c-5.1,0-9.3,4.2-9.3,9.3v0.9c0,1.5,1.2,2.7,2.7,2.7h29.1c1.5,0,2.7-1.2,2.7-2.7v-0.9
			c0-5.1-4.2-9.3-9.3-9.3H17.9z"/>
	</g>
	<g>
		<path class="st0" d="M26.1,44.9l-7.8-11.4h14.3L26.1,44.9z M22.1,35.5l3.8,5.6l3.2-5.6H22.1z"/>
	</g>
	<g>
		<path class="st0" d="M25.9,34c-6.3,0-11.4-6.6-11.4-14.7v-4.4c0-0.4,0.2-0.8,0.6-0.9c0.4-0.2,0.7-0.3,1.1-0.4
			c6.4-2.5,12.7-2.6,18.7-0.4c0.6,0.2,1.3,0.5,1.9,0.8c0.4,0.2,0.6,0.5,0.6,0.9v4.4C37.3,27.4,32.2,34,25.9,34z M16.4,15.6v3.7
			c0,7,4.2,12.7,9.4,12.7s9.4-5.7,9.4-12.7v-3.7c-0.4-0.2-0.8-0.3-1.2-0.5c-5.6-2.1-11.4-2-17.3,0.3C16.7,15.5,16.6,15.5,16.4,15.6z
			"/>
	</g>
	<g>
		<path class="st0" d="M16.8,15.5c-0.1,0-0.2,0-0.3-0.1l-10.8-4C5.3,11.2,5,10.9,5,10.5c0-0.5,0.3-0.8,0.7-1l20-7.5
			c0.2-0.1,0.5-0.1,0.7,0l20,7.5c0.3,0.2,0.6,0.5,0.6,1c0,0.4-0.3,0.8-0.7,0.9l-9.9,3.7c-0.2,0.1-0.5,0.1-0.7,0
			c-6-2.1-12.2-2-18.6,0.3C17,15.5,16.9,15.5,16.8,15.5z M8.9,10.5l8,3c6.6-2.3,13.1-2.4,19.3-0.3l7-2.6L26,4.1L8.9,10.5z"/>
	</g>
	<g>
		<path class="st0" d="M11.2,26.4c-0.6,0-1-0.4-1-1v-12c0-0.6,0.4-1,1-1s1,0.4,1,1v12C12.2,25.9,11.8,26.4,11.2,26.4z"/>
	</g>
</g>
</svg>
