<?xml version="1.0" encoding="utf-8"?>
<!-- Generator: Adobe Illustrator 22.1.0, SVG Export Plug-In . SVG Version: 6.00 Build 0)  -->
<svg version="1.1" id="Layer_1" xmlns="http://www.w3.org/2000/svg" xmlns:xlink="http://www.w3.org/1999/xlink" x="0px" y="0px"
	 viewBox="0 0 128 137" style="enable-background:new 0 0 128 137;" xml:space="preserve">
<path d="M127.3,101.6c-0.7-1.1-1.9-2-3.1-2.5c-1.8-0.7-3.8-0.8-5.7-0.8c-9.4,0-24.5,4.1-29.9,5.7c-1.2-2.8-4.5-5.4-12.5-5.4
	c-4.8,0-9.3,1-9.5,1c-1.5,0.3-2.8,0.2-4.6-0.3c-3.6-1-6.6-3.2-9.8-5.4c-3.3-2.3-6.6-4.6-10.7-5.9c-6.7-2-13-2.5-18.6-1.4
	c-2.7,0.5-5.3,1.5-7.9,2.4c-2.3,0.9-4.5,1.7-6.8,2.2c-0.5,0.1-1,0.3-1.6,0.4c-1.2,0.3-2.5,0.7-3.4,0.7c-0.3,0-0.4,0-0.5-0.1L0,91.4
	c0,0,0,20.1,0,26.8c0,1.6,1.4,2.7,3.1,2.7c0.8,0,1.7-0.3,2.5-0.5c0.4-0.1,0.9-0.3,1.1-0.3l0.4-0.1c3.4-0.5,6.8-1,10.1-1
	c4.7,0,28.1,6,36.7,8.3H54c1.9,0.4,3.7,0.6,5.5,0.6c3.8,0,5.9-0.9,6.1-1c2.9-1.3,8.3-2.8,8.3-2.8c9.3-2.6,45.6-14,45.9-14.1
	c5-1.4,7.6-3.2,8.1-5.4C128.1,103.5,127.8,102.5,127.3,101.6z M118.6,106.1c-0.4,0.1-36.6,11.5-45.9,14.1c-0.2,0.1-5.7,1.6-8.9,3.1
	c0,0-1.5,0.7-4.4,0.7c-1.4,0-3-0.2-4.6-0.5c-3.5-0.9-31.6-8.4-37.6-8.4c-3.6,0-7.2,0.5-10.7,1.1l-0.4,0.1c-0.6,0.1-1.1,0.3-1.7,0.4
	H4.3c0-8.5,0-16.5-0.1-20.3c1.2-0.1,2.4-0.5,3.5-0.8c0.5-0.1,1-0.3,1.4-0.4c2.6-0.6,5-1.5,7.4-2.3c2.5-0.9,4.8-1.8,7.2-2.2
	c4.9-1,10.6-0.5,16.6,1.3c3.5,1,6.4,3.1,9.5,5.3c3.3,2.3,6.8,4.7,11,6c2.4,0.7,4.4,0.8,6.5,0.3c0.2,0,4.3-0.9,8.6-0.9
	c3.9,0,8.7,0.7,9.1,4.1l0.1,1.2c-0.3,0.1-0.7,0.3-1,0.4c-1.9,0.7-3.8,1.1-5.8,1.6c-2,0.4-4,0.9-6,1.4c-1.9,0.6-3.8,1-5.6,0.7
	c-1.8-0.3-3.9-0.9-5.9-1.2c-2-0.3-4.1-0.6-6.1-0.7s-4.1-0.1-6.2,0c-2,0.2-4,0.3-6.1,0.1c1.9,0.7,4,0.8,6.1,0.9c2,0.1,4,0.3,6,0.5
	c2,0.3,4,0.6,5.9,1.1c1,0.2,2,0.4,2.9,0.7c1,0.2,2,0.5,3.1,0.7c2.2,0.3,4.5-0.2,6.4-0.9c1.9-0.6,3.8-1.1,5.8-1.7s3.9-1.3,5.8-2.2
	c0.2-0.1,0.5,0.1,0.7-0.1l0,0l2.3-0.7c0.2-0.1,19.9-6.1,30.7-6.1c3.8,0,5,0.8,5.2,1.2l0.1,0.3C123.4,104.4,122.1,105.1,118.6,106.1z
	"/>
<path d="M64,42c-12.2,0-22,9.8-22,22s9.8,22,22,22s22-9.8,22-22S76.2,42,64,42z M64,82c-9.9,0-18-8.1-18-18s8.1-18,18-18
	s18,8.1,18,18S73.9,82,64,82z"/>
<path d="M66,62.3c-2.3-0.9-3.2-1.5-3.1-2.4c0.1-0.8,0.7-1.5,2.4-1.4c2,0.2,3.2,0.8,3.8,1.2l1-2.9c-0.9-0.5-2.1-0.9-3.8-1.1l0.1-2.3
	l-2.6-0.2l-0.1,2.5c-2.9,0.3-4.7,2-4.8,4.4c-0.1,2.5,1.7,4,4.5,5.1c2,0.8,2.8,1.5,2.7,2.5s-1.2,1.6-2.7,1.5
	c-1.7-0.1-3.2-0.7-4.3-1.4l-1,3c0.9,0.6,2.6,1.2,4.4,1.4l-0.2,2.5l2.6,0.1l0.2-2.7c3.1-0.3,4.9-2.2,5-4.6
	C70.2,65.1,69.1,63.6,66,62.3z"/>
<path d="M0.7,26.3c0.7,1.1,1.9,2,3.1,2.5c1.8,0.7,3.8,0.8,5.7,0.8c9.4,0,24.5-4.1,29.9-5.7c1.2,2.8,4.5,5.4,12.5,5.4
	c4.8,0,9.3-1,9.5-1c1.5-0.3,2.8-0.2,4.6,0.3c3.6,1,6.6,3.2,9.8,5.4c3.3,2.3,6.6,4.6,10.7,5.9c6.7,2,13,2.5,18.6,1.4
	c2.7-0.5,5.3-1.5,7.9-2.4c2.3-0.9,4.5-1.7,6.8-2.2c0.5-0.1,1-0.3,1.6-0.4c1.2-0.3,2.5-0.7,3.4-0.7c0.3,0,0.4,0,0.5,0.1l2.6,0.8
	c0,0,0-20.1,0-26.8c0-1.6-1.4-2.7-3.1-2.7c-0.8,0-1.7,0.3-2.5,0.5c-0.4,0.1-0.9,0.3-1.1,0.3l-0.4,0.1c-3.4,0.5-6.8,1-10.1,1
	c-4.7,0-28.1-6-36.7-8.3l0,0C72.1,0.2,70.3,0,68.5,0c-3.8,0-5.9,0.9-6.1,1c-2.9,1.3-8.3,2.8-8.3,2.8c-9.3,2.6-45.6,14-45.9,14.1
	c-5,1.4-7.6,3.2-8.1,5.4C-0.1,24.4,0.2,25.4,0.7,26.3z M9.4,21.8C9.8,21.7,46,10.3,55.3,7.7c0.2-0.1,5.7-1.6,8.9-3.1
	c0,0,1.5-0.7,4.4-0.7c1.4,0,3,0.2,4.6,0.5c3.5,0.9,31.6,8.4,37.6,8.4c3.6,0,7.2-0.5,10.7-1.1l0.4-0.1c0.6-0.1,1.1-0.3,1.7-0.4h0.1
	c0,8.5,0,16.5,0.1,20.3c-1.2,0.1-2.4,0.5-3.5,0.8c-0.5,0.1-1,0.3-1.4,0.4c-2.6,0.6-5,1.5-7.4,2.3c-2.5,0.9-4.8,1.8-7.2,2.2
	c-4.9,1-10.6,0.5-16.6-1.3c-3.5-1-6.4-3.1-9.5-5.3c-3.3-2.3-6.8-4.7-11-6c-2.4-0.7-4.4-0.8-6.5-0.3c-0.2,0-4.3,0.9-8.6,0.9
	c-3.9,0-8.7-0.7-9.1-4.1l-0.1-1.2c0.3-0.1,0.7-0.3,1-0.4c1.9-0.7,3.8-1.1,5.8-1.6c2-0.4,4-0.9,6-1.4c1.9-0.6,3.8-1,5.6-0.7
	s3.9,0.9,5.9,1.2s4.1,0.6,6.1,0.7s4.1,0.1,6.2,0c2-0.2,4-0.3,6.1-0.1c-1.9-0.7-4-0.8-6.1-0.9c-2-0.1-4-0.3-6-0.5
	c-2-0.3-4-0.6-5.9-1.1c-1-0.2-2-0.4-2.9-0.7c-1-0.2-2-0.5-3.1-0.7c-2.2-0.3-4.5,0.2-6.4,0.9c-1.9,0.6-3.8,1.1-5.8,1.7
	s-3.9,1.3-5.8,2.2c-0.2,0.1-0.5-0.1-0.7,0.1l0,0l-2.3,0.7c-0.2,0.1-19.9,6.1-30.7,6.1c-3.8,0-5-0.8-5.2-1.2l-0.1-0.3
	C4.6,23.5,5.9,22.8,9.4,21.8z"/>
</svg>
