<?xml version="1.0" encoding="utf-8"?>
<!-- Generator: Adobe Illustrator 22.1.0, SVG Export Plug-In . SVG Version: 6.00 Build 0)  -->
<svg version="1.1" id="Layer_1" xmlns="http://www.w3.org/2000/svg" xmlns:xlink="http://www.w3.org/1999/xlink" x="0px" y="0px"
	 viewBox="0 0 100 76.7" style="enable-background:new 0 0 100 76.7;" xml:space="preserve">
<path d="M73,36.7c6.5-6.9,5.9-13.3,4.8-17.5c-1.4-5.8-7.9-12-15.8-12c-6.1,0-10.1,3.3-12,5.3c-1.9-2-5.9-5.3-12-5.3
	c-8,0-14.4,6.3-15.8,12c-1,4.2-1.6,10.6,4.9,17.5c5.5,5.9,21.8,21.6,21.9,21.8c0.1,0.1,0.2,0.1,0.3,0.2c0,0,0.1,0.1,0.2,0.1
	c0.2,0.1,0.4,0.1,0.5,0.1s0.4,0,0.5-0.1c0.1,0,0.1-0.1,0.2-0.1c0.1-0.1,0.2-0.1,0.3-0.2C51.3,58.3,67.5,42.6,73,36.7z M50.1,55.4
	C46.4,51.9,34,39.7,29.3,34.7c-5.5-5.8-5.1-11-4.1-14.9c1-4,5.8-9.8,13-9.8c6.9,0,10.6,5.3,10.7,5.5c0.4,0.6,1.2,0.8,1.9,0.5
	c0,0,0.1,0,0.2-0.1l0,0c0.1-0.1,0.2-0.2,0.3-0.3l0.1-0.1l0,0l0,0c0.2-0.3,3.8-5.5,10.7-5.5c7.2,0,12,5.9,13,9.8
	c0.9,3.8,1.3,9-4.2,14.9C66.2,39.7,53.8,51.8,50.1,55.4z"/>
<path d="M17.9,38.1c-0.3-3-0.9-9.2-1.1-10.6c-0.2-1.8-0.6-3.3-1.8-4.9c-1-1.4-3.3-1.6-5-1.2c-1.9,0.5-3.2,2-3.4,3.9
	C6.2,28.5,5.3,37.6,5.1,43c-0.2,5.3,5,11.8,7.8,15.3l0.7,0.9c2,2.5,3.7,6.7,4.6,10.8c0.1,0.7,0.8,1.2,1.4,1.2c0.1,0,0.2,0,0.3,0
	c0.8-0.2,1.3-0.9,1.1-1.7c-1-4.6-2.9-9.1-5.2-12l-0.7-0.9c-2.2-2.7-7.3-9.2-7.2-13.3c0.3-5.5,1.2-14.5,1.6-17.5
	c0.1-0.4,0.2-1,1.1-1.3c0.9-0.4,1.9-0.1,2.1,0c0.8,1,1.1,1.8,1.2,3.5c0.1,1.4,0.9,8.6,1.1,11.2c-0.5,0.4-0.9,0.9-1.2,1.5
	c-1.3,2.7,0.7,6.5,1.1,7.2c0,0.1,0.1,0.1,0.1,0.2l4.9,6.5c0.5,0.6,1.4,0.8,2.1,0.3c0.6-0.5,0.8-1.4,0.3-2.1l-4.9-6.4
	c-0.7-1.3-1.4-3.5-1-4.4c0.2-0.4,0.5-0.6,1-0.7c0.7-0.1,1.4,0.1,1.7,0.3c1.1,0.9,6.7,6.2,8.1,7.8c0.8,0.9,1.6,4.4,2.5,10.5l0.1,0.9
	c0.6,4.2,1.3,8.1,2.5,9.9c0.3,0.4,0.7,0.6,1.2,0.6c0.3,0,0.6-0.1,0.8-0.2c0.7-0.5,0.8-1.4,0.4-2c-0.9-1.3-1.7-6.3-2-8.7l-0.1-0.9
	c-0.9-6-1.8-10.4-3.2-12c-1.5-1.7-7.3-7.1-8.5-8.1C20.2,38.5,19,38.1,17.9,38.1z"/>
<path d="M84.2,57.4c-2.3,2.9-4.2,7.4-5.2,12c-0.2,0.8,0.3,1.6,1.1,1.7c0.1,0,0.2,0,0.3,0c0.7,0,1.3-0.5,1.4-1.2
	c0.9-4.1,2.6-8.2,4.6-10.8l0.7-0.9c2.8-3.5,8-10,7.8-15.3c-0.2-5.4-1.1-14.5-1.4-17.5c-0.2-1.9-1.5-3.4-3.4-3.9
	c-1.6-0.5-3.9-0.2-5,1.2c-1.2,1.7-1.6,3.1-1.8,4.9c-0.1,1.3-0.8,7.6-1.1,10.6c-1.2,0-2.3,0.4-3.1,1c-1.2,1-6.9,6.3-8.5,8.1
	c-1.4,1.6-2.3,6-3.2,12v0.8c-0.4,2.4-1.1,7.3-2,8.7c-0.5,0.7-0.3,1.6,0.4,2C66,71,66.3,71,66.6,71c0.5,0,0.9-0.2,1.2-0.6
	c1.2-1.7,1.8-5.7,2.5-9.9l0.1-0.9c0.9-6.1,1.8-9.6,2.6-10.5c1.4-1.6,7.1-6.8,8.1-7.8c0.3-0.2,1-0.5,1.7-0.3c0.5,0.1,0.8,0.3,1,0.7
	c0.5,0.9-0.3,3.2-1,4.4l-4.9,6.4c-0.5,0.7-0.4,1.6,0.3,2.1c0.7,0.5,1.6,0.4,2.1-0.3l4.9-6.5c0,0,0.1-0.1,0.1-0.2
	c0.4-0.7,2.4-4.6,1.1-7.2c-0.3-0.6-0.7-1.1-1.2-1.5c0.3-2.6,1-9.8,1.2-11.2c0.2-1.6,0.5-2.4,1.2-3.4c0.2-0.2,1.2-0.4,2.1,0
	c0.9,0.3,1,0.9,1.1,1.3c0.3,3,1.2,12,1.4,17.3c0.2,4.2-5,10.6-7.2,13.3L84.2,57.4z"/>
</svg>
