<?xml version="1.0" encoding="utf-8"?>
<!-- Generator: Adobe Illustrator 22.1.0, SVG Export Plug-In . SVG Version: 6.00 Build 0)  -->
<svg version="1.1" id="Layer_1" xmlns="http://www.w3.org/2000/svg" xmlns:xlink="http://www.w3.org/1999/xlink" x="0px" y="0px"
	 viewBox="0 0 100 86.7" style="enable-background:new 0 0 100 86.7;" xml:space="preserve">
<g>
	<path d="M37.5,48.1c-3.6,0-6.5,2.9-6.5,6.5s2.9,6.5,6.5,6.5s6.5-2.9,6.5-6.5S41.1,48.1,37.5,48.1z M37.5,58.1
		c-1.9,0-3.5-1.6-3.5-3.5s1.6-3.5,3.5-3.5s3.5,1.6,3.5,3.5S39.4,58.1,37.5,58.1z"/>
	<path d="M69,54.6c0-3.6-2.9-6.5-6.5-6.5S56,51,56,54.6s2.9,6.5,6.5,6.5S69,58.2,69,54.6z M62.5,58.1c-1.9,0-3.5-1.6-3.5-3.5
		s1.6-3.5,3.5-3.5s3.5,1.6,3.5,3.5S64.4,58.1,62.5,58.1z"/>
	<path d="M79.5,81.5L64.8,67.6h1.4c4.7,0,8.5-3.8,8.5-8.5v-47c0-4.7-3.8-8.5-8.5-8.5h-33c-4.7,0-8.5,3.8-8.5,8.5v47
		c0,4.7,3.8,8.5,8.5,8.5h2.1L20.5,81.5c-0.6,0.6-0.6,1.5-0.1,2.1c0.3,0.3,0.7,0.5,1.1,0.5s0.7-0.1,1-0.4l4.1-3.8h46.8l4.1,3.8
		c0.3,0.3,0.7,0.4,1,0.4c0.4,0,0.8-0.2,1.1-0.5C80.2,83,80.1,82.1,79.5,81.5z M27.7,59.1v-47c0-3,2.5-5.5,5.5-5.5h33
		c3,0,5.5,2.5,5.5,5.5v47c0,3-2.5,5.5-5.5,5.5h-33C30.1,64.6,27.7,62.1,27.7,59.1z M60.4,67.6C60.4,67.6,60.4,67.7,60.4,67.6
		l3.4,3.2H36.2l3.3-3.2c0,0,0-0.1,0.1-0.1L60.4,67.6L60.4,67.6z M29.8,76.8l3.2-3h34l3.2,3H29.8z"/>
	<path d="M69.2,19.1h-39v23h39V19.1z M66.2,39.1h-33v-17h33V39.1z"/>
	<rect x="42.2" y="12.1" width="15" height="3"/>
</g>
</svg>
