<?xml version="1.0" encoding="UTF-8" standalone="no"?><!DOCTYPE svg PUBLIC "-//W3C//DTD SVG 1.1//EN" "http://www.w3.org/Graphics/SVG/1.1/DTD/svg11.dtd"><svg width="100%" height="100%" viewBox="0 0 580 73" version="1.1" xmlns="http://www.w3.org/2000/svg" xmlns:xlink="http://www.w3.org/1999/xlink" xml:space="preserve" xmlns:serif="http://www.serif.com/" style="fill-rule:evenodd;clip-rule:evenodd;stroke-linejoin:round;stroke-miterlimit:1.41421;"><rect id="Artboard2" x="0" y="0" width="580" height="73" style="fill:none;"/><clipPath id="_clip1"><rect x="0" y="0" width="580" height="73"/></clipPath><g clip-path="url(#_clip1)"><rect id="Artboard1" x="-10" y="-11" width="612" height="89.9" style="fill:none;"/><path d="M0.41,36.51c0,-21.45 16,-36.09 36.61,-36.09c14.13,0 22.81,7.32 28,15.69l-10.42,5.33c-3.69,-6.214 -10.374,-10.065 -17.6,-10.14c-13.78,0 -24,10.6 -24,25.21c0,14.61 10.22,25.21 24,25.21c7.24,-0.032 13.946,-3.899 17.6,-10.15l10.46,5.33c-5.33,8.37 -13.91,15.69 -28,15.69c-20.64,0.01 -36.65,-14.64 -36.65,-36.08Z" style="fill:#fff;fill-rule:nonzero;"/><path d="M114.77,71.35l-15.48,-26.05l-12.14,0l0,26.05l-12.24,0l0,-69.78l30.65,0c13.81,0 22.81,9 22.81,21.86c0,12.45 -8.16,19.15 -16.53,20.51l17,27.41l-14.07,0Zm1,-47.92c0,-6.69 -5,-11.09 -11.93,-11.09l-16.69,0l0,22.18l16.74,0c6.91,0 11.93,-4.39 11.93,-11.09l-0.05,0Z" style="fill:#fff;fill-rule:nonzero;"/><path d="M137.49,36.51c0,-20.82 14.75,-36.09 35.68,-36.09c20.93,0 35.67,15.27 35.67,36.09c0,20.82 -14.75,36.09 -35.67,36.09c-20.92,0 -35.68,-15.27 -35.68,-36.09Zm58.8,0c0,-14.44 -9.11,-25.21 -23.12,-25.21c-14.01,0 -23.12,10.77 -23.12,25.21c0,14.44 9,25.21 23.12,25.21c14.12,0 23.12,-10.88 23.12,-25.21Z" style="fill:#fff;fill-rule:nonzero;"/><path d="M271.9,71.35l-13.6,-51.45l-13.49,51.48l-13.08,0l-20,-69.78l13.7,0l13.6,53.77l14.44,-53.77l9.73,0l14.43,53.77l13.5,-53.77l13.7,0l-19.83,69.75l-13.1,0Z" style="fill:#fff;fill-rule:nonzero;"/><path d="M313,71.35l0,-69.78l26,0c21.76,0 36.51,14.43 36.51,34.94c0,20.51 -14.76,34.84 -36.51,34.84l-26,0Zm50,-34.84c0,-13.5 -8.37,-24.17 -24,-24.17l-13.72,0l0,48.23l13.72,0c15.16,0 24,-10.88 24,-24.06Z" style="fill:#fff;fill-rule:nonzero;"/><path d="M389.1,71.35l0,-69.78l3.35,0l0,66.64l35.05,0l0,3.14l-38.4,0Z" style="fill:#fff;fill-rule:nonzero;"/><path d="M492.54,71.35l-7.75,-18.73l-38.91,0l-7.74,18.73l-3.87,0l29.08,-69.78l4,0l29.09,69.78l-3.9,0Zm-27.2,-65.91l-18.21,44l36.41,0l-18.2,-44Z" style="fill:#fff;fill-rule:nonzero;"/><path d="M556,71.35l-18.1,-63.51l-18.1,63.51l-4,0l-19.8,-69.78l3.66,0l18.2,64.75l18.31,-64.75l3.56,0l18.27,64.75l18.2,-64.75l3.66,0l-19.86,69.78l-4,0Z" style="fill:#fff;fill-rule:nonzero;"/></g></svg>